HIERARCHY
ROOT Hips
{
  OFFSET 0.0 0.0 0.0
  CHANNELS 6 Xposition Yposition Zposition Zrotation Xrotation Yrotation
  JOINT LeftHipJoint
  {
    OFFSET 0.1 0.0 0.0
    CHANNELS 3 Zrotation Xrotation Yrotation
    JOINT LeftUpLeg
    {
      OFFSET 112.73749950871466 0.0 0.0
      CHANNELS 3 Zrotation Xrotation Yrotation
      JOINT LeftLeg
      {
        OFFSET 0.0 0.0 -426.7810091730365
        CHANNELS 3 Zrotation Xrotation Yrotation
        JOINT LeftFoot
        {
          OFFSET 0.0 0.0 -427.63698234942717
          CHANNELS 3 Zrotation Xrotation Yrotation
          End Site
          {
            OFFSET 0.0 -0.1 0.0
          }
        }
      }
    }
  }
  JOINT LowerBack
  {
    OFFSET 0.0 0.0 0.1
    CHANNELS 3 Zrotation Xrotation Yrotation
    JOINT Spine
    {
      OFFSET 0.0 0.0 223.78923198234315
      CHANNELS 3 Zrotation Xrotation Yrotation
      JOINT Spine1
      {
        OFFSET 0.0 0.0 247.38230325529602
        CHANNELS 3 Zrotation Xrotation Yrotation
        JOINT LeftShoulder
        {
          OFFSET 0.1 0.0 0.0
          CHANNELS 3 Zrotation Xrotation Yrotation
          JOINT LeftArm
          {
            OFFSET 132.89515101972268 0.0 0.0
            CHANNELS 3 Zrotation Xrotation Yrotation
            JOINT LeftForeArm
            {
              OFFSET 249.2823710433705 0.0 0.0
              CHANNELS 3 Zrotation Xrotation Yrotation
              JOINT LeftHand
              {
                OFFSET 230.71245124876611 0.0 0.0
                CHANNELS 3 Zrotation Xrotation Yrotation
                End Site
                {
                  OFFSET 0.1 0.0 0.0
                }
              }
            }
          }
        }
        JOINT Neck
        {
          OFFSET 0.0 0.0 0.1
          CHANNELS 3 Zrotation Xrotation Yrotation
          JOINT Neck1
          {
            OFFSET 0.0 0.0 112.87377832920434
            CHANNELS 3 Zrotation Xrotation Yrotation
            End Site
            {
              OFFSET 0.0 0.0 112.62455441679761
            }
          }
        }
        JOINT RightShoulder
        {
          OFFSET -0.1 0.0 0.0
          CHANNELS 3 Zrotation Xrotation Yrotation
          JOINT RightArm
          {
            OFFSET -132.89515101972268 0.0 0.0
            CHANNELS 3 Zrotation Xrotation Yrotation
            JOINT RightForeArm
            {
              OFFSET -249.2823710433705 0.0 0.0
              CHANNELS 3 Zrotation Xrotation Yrotation
              JOINT RightHand
              {
                OFFSET -230.71245124876611 0.0 0.0
                CHANNELS 3 Zrotation Xrotation Yrotation
                End Site
                {
                  OFFSET -0.1 0.0 0.0
                }
              }
            }
          }
        }
      }
    }
  }
  JOINT RightHipJoint
  {
    OFFSET -0.1 0.0 0.0
    CHANNELS 3 Zrotation Xrotation Yrotation
    JOINT RightUpLeg
    {
      OFFSET -112.73749950871466 0.0 0.0
      CHANNELS 3 Zrotation Xrotation Yrotation
      JOINT RightLeg
      {
        OFFSET 0.0 0.0 -426.7810091730365
        CHANNELS 3 Zrotation Xrotation Yrotation
        JOINT RightFoot
        {
          OFFSET 0.0 0.0 -427.63698234942717
          CHANNELS 3 Zrotation Xrotation Yrotation
          End Site
          {
            OFFSET 0.0 -0.1 0.0
          }
        }
      }
    }
  }
}
MOTION
Frames: 4
Frame Time: 0.03333333333333333
2500.0 5000.0 866.4208163898469 29.100314238219624 -12.61726959257934 2.1306726052609815 0.0 0.0 3.975693351829396e-16 -0.43310014265627345 12.23451745867464 -2.8938179037116605 -0.7249820061613312 8.299988782139486 1.4925546691767106 0.0 0.0 0.0 0.0 0.0 3.975693351829396e-16 -0.30057855768167785 8.478704722299508 -4.0767840657887024 -5.667291192393254 -5.061811994561917e-16 1.7397366990614377e-16 0.0 0.0 2.981770013872047e-16 -12.350172057914897 -22.671232047617085 57.6608167601486 -135.22918255747828 8.6749680390589615e-16 2.716082103444438e-14 3.1805546814635168e-15 0.0 0.0 0.0 0.0 2.981770013872047e-16 -1.3652185501247294 41.74252830422523 -0.08471152020226841 0.0 0.0 2.981770013872047e-16 -8.623181145322988 -16.00196471557006 -54.81286125605132 125.6450358134617 -2.9054261471824226e-15 5.6588171228965044e-15 0.0 0.0 0.0 0.0 0.0 3.975693351829396e-16 -0.26810518411400236 7.456797836662161 0.15862245120988674 -0.28282767917989937 8.582840583617779 0.6300332399351175 6.896728590703373e-34 -3.975693351829396e-16 1.987846675914698e-16
2500.0 5000.0 866.4208163898469 28.84049077836163 -12.445970608845531 2.0334284971640444 0.0 0.0 0.0 -0.38438512259270013 12.112418529833892 -2.901262389341939 -0.7138474423586204 8.522510161713328 1.3372735764027504 0.0 0.0 3.975693351829396e-16 0.0 0.0 0.0 -0.26251984046211313 8.253105327988719 -3.7103703638529484 -5.614671312217865 -2.8808314621342256e-16 -2.1315010929739638e-16 0.0 0.0 9.93923337957349e-17 -12.010265745798632 -21.09971421220166 57.61944228123865 -134.7387349648183 -8.807000054468212e-15 3.671525946607536e-15 0.0 0.0 0.0 0.0 0.0 9.93923337957349e-17 -1.5029126374642368 42.11649824413832 -0.1645483340617054 0.0 0.0 9.93923337957349e-17 -8.642396302376422 -14.409443213995724 -54.807286904392974 125.30065681988755 -4.334934290472341e-15 4.919455157316703e-15 0.0 0.0 0.0 0.0 0.0 0.0 -0.23947454882247057 7.40965077884237 0.19556811754626882 -0.23629420449340618 8.255810502290567 0.6552585834389401 3.4483642953516864e-34 -3.975693351829396e-16 9.93923337957349e-17
2500.0 5000.0 866.4208163898469 28.65416944952726 -12.343220192169255 1.9491846322910578 0.0 1.5405811738338909e-15 0.0 -0.3108499279829431 12.146835945503906 -2.812437057973213 -0.6643608420977216 8.749755878793206 0.9883965238874594 5.862219302097867e-33 -1.689669674527493e-15 3.9756933518293955e-16 0.0 1.5405811738338909e-15 0.0 -0.2032826211538745 7.9164751983276345 -3.5191077627737233 -5.015804211034188 1.1698199873358759e-15 5.48675208264236e-16 0.0 0.0 0.0 -12.01664599402399 -18.758896734055675 57.84437331017069 -135.0691451541997 2.4307445698520374e-15 5.878366538695319e-15 0.0 0.0 0.0 0.0 0.0 0.0 -2.032802109322668 42.84017919333433 -0.06997048470661178 0.0 0.0 0.0 -8.801191888544313 -13.388768453408236 -54.84566080811258 125.3388810283337 -5.651034495668131e-15 -2.920534446961174e-15 0.0 0.0 0.0 0.0 1.5405811738338909e-15 0.0 -0.19328820079419987 7.382629035092562 0.11474200212892485 -0.1923008594940185 8.05693125084724 0.8787852734262351 0.0 0.0 0.0
2500.0 5000.0 866.4208163898469 29.075299575136295 -12.325219901676439 2.129495967293328 0.0 0.0 3.975693351829396e-16 -0.36076280852041226 11.83758021448057 -3.0465486177380807 -0.7735931732219782 9.087766341262856 0.9701291657772431 0.0 0.0 3.975693351829396e-16 0.0 0.0 3.975693351829396e-16 -0.2678417568480199 8.750108682168193 -3.5686891730517587 -5.70109801454853 -3.0275092698499563e-16 8.444072704183502e-17 0.0 0.0 -9.93923337957349e-17 -11.093987340880572 -17.68742399729056 57.53200892187835 -132.97406845728278 0.0 -0.0 -6.361109362927033e-15 0.0 0.0 0.0 0.0 -9.93923337957349e-17 -1.3612075409875142 42.225452620879665 -0.16620472685421914 0.0 0.0 -9.93923337957349e-17 -9.629338096449718 -11.443721807516875 -55.23151934422057 125.62970605287882 7.842724960445564e-16 -6.748247070541132e-15 0.0 0.0 0.0 0.0 0.0 3.975693351829396e-16 -0.21979263922869993 7.067894264652158 -0.0038307859487772843 -0.2635776853001726 8.533484792436221 0.8586079157288347 0.0 0.0 2.981770013872047e-16
